
<svg width="80" height="80" viewBox="0 0 80 80" fill="none" xmlns="http://www.w3.org/2000/svg">
  <path d="M40 10C35 15 30 20 25 30C20 40 25 50 35 55C45 60 55 55 60 45C65 35 60 25 55 20C50 15 45 10 40 10Z" fill="url(#gradient1)"/>
  <path d="M40 15C37 18 34 22 32 28C30 34 32 40 37 43C42 46 47 43 49 38C51 33 49 28 47 25C45 22 42 18 40 15Z" fill="url(#gradient2)"/>
  <defs>
    <linearGradient id="gradient1" x1="25" y1="10" x2="60" y2="55" gradientUnits="userSpaceOnUse">
      <stop offset="0%" style="stop-color:#FF6B35"/>
      <stop offset="50%" style="stop-color:#F7931E"/>
      <stop offset="100%" style="stop-color:#FFD700"/>
    </linearGradient>
    <linearGradient id="gradient2" x1="32" y1="15" x2="49" y2="43" gradientUnits="userSpaceOnUse">
      <stop offset="0%" style="stop-color:#FF4500"/>
      <stop offset="100%" style="stop-color:#FF8C00"/>
    </linearGradient>
  </defs>
</svg>
